<?xml version="1.0" encoding="utf-8"?>
<!-- Uploaded to: SVG Repo, www.svgrepo.com, Generator: SVG Repo Mixer Tools -->
<svg width="800px" height="800px" viewBox="0 0 1024 1024" class="icon"  version="1.1" xmlns="http://www.w3.org/2000/svg"><path d="M350.208 192.512h61.44v61.44h-61.44zM411.648 251.904h61.44v61.44h-61.44zM473.088 251.904h61.44v61.44h-61.44z" fill="#009944" /><path d="M532.48 192.512h61.44v61.44h-61.44z" fill="#009944" /><path d="M229.376 374.784h61.44v61.44h-61.44zM290.816 313.344h61.44v61.44h-61.44z" fill="#601986" /><path d="M350.208 313.344h61.44v61.44h-61.44zM290.816 374.784h61.44v61.44h-61.44z" fill="#601986" /><path d="M350.208 374.784h61.44v61.44h-61.44z" fill="#601986" /><path d="M473.088 313.344h61.44v61.44h-61.44z" fill="#009944" /><path d="M411.648 374.784h61.44v61.44h-61.44z" fill="#601986" /><path d="M532.48 313.344h61.44v61.44h-61.44zM593.92 313.344h61.44v61.44h-61.44z" fill="#009944" /><path d="M593.92 374.784h61.44v61.44h-61.44zM229.376 434.176h61.44v61.44h-61.44zM290.816 434.176h61.44v61.44h-61.44z" fill="#601986" /><path d="M350.208 434.176h61.44v61.44h-61.44zM290.816 495.616h61.44v61.44h-61.44z" fill="#601986" /><path d="M350.208 495.616h61.44v61.44h-61.44zM411.648 434.176h61.44v61.44h-61.44zM532.48 434.176h61.44v61.44h-61.44zM593.92 434.176h61.44v61.44h-61.44zM532.48 495.616h61.44v61.44h-61.44zM593.92 495.616h61.44v61.44h-61.44z" fill="#601986" /><path d="M473.088 557.056h61.44v61.44h-61.44z" fill="#009944" /><path d="M411.648 616.448h61.44v61.44h-61.44zM473.088 616.448h61.44v61.44h-61.44zM593.92 557.056h61.44v61.44h-61.44zM655.36 374.784h61.44v61.44h-61.44z" fill="#601986" /><path d="M655.36 434.176h61.44v61.44h-61.44z" fill="#601986" /><path d="M714.752 434.176h61.44v61.44h-61.44zM655.36 495.616h61.44v61.44h-61.44z" fill="#601986" /><path d="M714.752 495.616h61.44v61.44h-61.44zM655.36 557.056h61.44v61.44h-61.44zM350.208 677.888h61.44v61.44h-61.44zM350.208 739.328h61.44v61.44h-61.44zM411.648 677.888h61.44v61.44h-61.44zM473.088 677.888h61.44v61.44h-61.44zM411.648 739.328h61.44v61.44h-61.44zM473.088 739.328h61.44v61.44h-61.44z" fill="#601986" /><path d="M532.48 677.888h61.44v61.44h-61.44zM532.48 739.328h61.44v61.44h-61.44zM411.648 798.72h61.44v61.44h-61.44z" fill="#601986" /><path d="M473.088 798.72h61.44v61.44h-61.44z" fill="#601986" /></svg>